<svg width="24" height="15" viewBox="0 0 24 15" fill="none" xmlns="http://www.w3.org/2000/svg">
<path d="M1.125 0.375H22.875C23.1734 0.375 23.4595 0.493526 23.6705 0.704505C23.8815 0.915483 24 1.20163 24 1.5C24 1.79837 23.8815 2.08452 23.6705 2.2955C23.4595 2.50647 23.1734 2.625 22.875 2.625H1.125C0.826631 2.625 0.540483 2.50647 0.329505 2.2955C0.118526 2.08452 0 1.79837 0 1.5C0 1.20163 0.118526 0.915483 0.329505 0.704505C0.540483 0.493526 0.826631 0.375 1.125 0.375ZM4.5 7.5C4.5 7.20163 4.61853 6.91548 4.8295 6.7045C5.04048 6.49353 5.32663 6.375 5.625 6.375H18.375C18.6734 6.375 18.9595 6.49353 19.1705 6.7045C19.3815 6.91548 19.5 7.20163 19.5 7.5C19.5 7.79837 19.3815 8.08452 19.1705 8.29549C18.9595 8.50647 18.6734 8.625 18.375 8.625H5.625C5.32663 8.625 5.04048 8.50647 4.8295 8.29549C4.61853 8.08452 4.5 7.79837 4.5 7.5ZM9 13.5C9 13.2016 9.11853 12.9155 9.3295 12.7045C9.54048 12.4935 9.82663 12.375 10.125 12.375H13.875C14.1734 12.375 14.4595 12.4935 14.6705 12.7045C14.8815 12.9155 15 13.2016 15 13.5C15 13.7984 14.8815 14.0845 14.6705 14.2955C14.4595 14.5065 14.1734 14.625 13.875 14.625H10.125C9.82663 14.625 9.54048 14.5065 9.3295 14.2955C9.11853 14.0845 9 13.7984 9 13.5Z" fill="#CC791E"/>
</svg>
