<svg width="16" height="21" viewBox="0 0 16 21" fill="none" xmlns="http://www.w3.org/2000/svg">
<path d="M8 11.1848C7.69555 11.1813 7.39732 11.2711 7.14544 11.4421C6.89357 11.6132 6.70015 11.8573 6.59121 12.1416C6.48228 12.4259 6.46306 12.7368 6.53615 13.0324C6.60923 13.3279 6.77111 13.594 7 13.7948V15.1848C7 15.45 7.10536 15.7044 7.29289 15.8919C7.48043 16.0795 7.73478 16.1848 8 16.1848C8.26522 16.1848 8.51957 16.0795 8.70711 15.8919C8.89464 15.7044 9 15.45 9 15.1848V13.7948C9.22889 13.594 9.39077 13.3279 9.46385 13.0324C9.53694 12.7368 9.51772 12.4259 9.40879 12.1416C9.29985 11.8573 9.10643 11.6132 8.85456 11.4421C8.60268 11.2711 8.30445 11.1813 8 11.1848ZM13 7.18481V5.18481C13 3.85873 12.4732 2.58696 11.5355 1.64928C10.5979 0.711599 9.32608 0.184814 8 0.184814C6.67392 0.184814 5.40215 0.711599 4.46447 1.64928C3.52678 2.58696 3 3.85873 3 5.18481V7.18481C2.20435 7.18481 1.44129 7.50088 0.87868 8.06349C0.316071 8.6261 0 9.38916 0 10.1848V17.1848C0 17.9805 0.316071 18.7435 0.87868 19.3061C1.44129 19.8687 2.20435 20.1848 3 20.1848H13C13.7956 20.1848 14.5587 19.8687 15.1213 19.3061C15.6839 18.7435 16 17.9805 16 17.1848V10.1848C16 9.38916 15.6839 8.6261 15.1213 8.06349C14.5587 7.50088 13.7956 7.18481 13 7.18481ZM5 5.18481C5 4.38916 5.31607 3.6261 5.87868 3.06349C6.44129 2.50089 7.20435 2.18481 8 2.18481C8.79565 2.18481 9.55871 2.50089 10.1213 3.06349C10.6839 3.6261 11 4.38916 11 5.18481V7.18481H5V5.18481ZM14 17.1848C14 17.45 13.8946 17.7044 13.7071 17.8919C13.5196 18.0795 13.2652 18.1848 13 18.1848H3C2.73478 18.1848 2.48043 18.0795 2.29289 17.8919C2.10536 17.7044 2 17.45 2 17.1848V10.1848C2 9.9196 2.10536 9.66524 2.29289 9.47771C2.48043 9.29017 2.73478 9.18481 3 9.18481H13C13.2652 9.18481 13.5196 9.29017 13.7071 9.47771C13.8946 9.66524 14 9.9196 14 10.1848V17.1848Z" fill="#AFAFAF"/>
</svg>
