<svg width="18" height="19" viewBox="0 0 18 19" fill="none" xmlns="http://www.w3.org/2000/svg">
<path d="M16.6 18.5L10.3 12.2C9.8 12.6 9.225 12.9167 8.575 13.15C7.925 13.3833 7.23333 13.5 6.5 13.5C4.68333 13.5 3.146 12.8707 1.888 11.612C0.63 10.3533 0.000667196 8.816 5.29101e-07 7C-0.000666138 5.184 0.628667 3.64667 1.888 2.388C3.14733 1.12933 4.68467 0.5 6.5 0.5C8.31533 0.5 9.853 1.12933 11.113 2.388C12.373 3.64667 13.002 5.184 13 7C13 7.73333 12.8833 8.425 12.65 9.075C12.4167 9.725 12.1 10.3 11.7 10.8L18 17.1L16.6 18.5ZM6.5 11.5C7.75 11.5 8.81267 11.0627 9.688 10.188C10.5633 9.31333 11.0007 8.25067 11 7C10.9993 5.74933 10.562 4.687 9.688 3.813C8.814 2.939 7.75133 2.50133 6.5 2.5C5.24867 2.49867 4.18633 2.93633 3.313 3.813C2.43967 4.68967 2.002 5.752 2 7C1.998 8.248 2.43567 9.31067 3.313 10.188C4.19033 11.0653 5.25267 11.5027 6.5 11.5Z" fill="#666666"/>
</svg>
