<svg width="81" height="80" viewBox="0 0 81 80" fill="none" xmlns="http://www.w3.org/2000/svg">
<path fill-rule="evenodd" clip-rule="evenodd" d="M40.5 80C45.7529 80 50.9543 78.9654 55.8073 76.9552C60.6604 74.945 65.0699 71.9986 68.7843 68.2843C72.4986 64.5699 75.445 60.1604 77.4552 55.3073C79.4654 50.4543 80.5 45.2529 80.5 40C80.5 34.7471 79.4654 29.5457 77.4552 24.6927C75.445 19.8396 72.4986 15.4301 68.7843 11.7157C65.0699 8.00138 60.6604 5.05501 55.8073 3.04482C50.9543 1.03463 45.7529 -7.82739e-08 40.5 0C29.8913 1.58081e-07 19.7172 4.21427 12.2157 11.7157C4.71427 19.2172 0.5 29.3913 0.5 40C0.5 50.6087 4.71427 60.7828 12.2157 68.2843C19.7172 75.7857 29.8913 80 40.5 80ZM39.4689 56.1778L61.6911 29.5111L54.8644 23.8222L35.7533 46.7511L25.8644 36.8578L19.58 43.1422L32.9133 56.4755L36.3533 59.9156L39.4689 56.1778Z" fill="#4CAF50"/>
</svg>
